<svg width="36" height="36" viewBox="0 0 36 36" fill="none" xmlns="http://www.w3.org/2000/svg">
<path d="M33 7.27502V25.11C33 26.565 31.815 27.9 30.36 28.08L29.895 28.14C27.435 28.47 23.97 29.49 21.18 30.66C20.205 31.065 19.125 30.33 19.125 29.265V8.40002C19.125 7.84502 19.44 7.33502 19.935 7.06502C22.68 5.58002 26.835 4.26002 29.655 4.02002H29.745C31.545 4.02002 33 5.47502 33 7.27502Z" fill="url(#paint0_linear_304_25)"/>
<path d="M16.0649 7.06502C13.3199 5.58002 9.16486 4.26002 6.34486 4.02002H6.23986C4.43986 4.02002 2.98486 5.47502 2.98486 7.27502V25.11C2.98486 26.565 4.16986 27.9 5.62486 28.08L6.08986 28.14C8.54986 28.47 12.0149 29.49 14.8049 30.66C15.7799 31.065 16.8599 30.33 16.8599 29.265V8.40002C16.8599 7.83002 16.5599 7.33502 16.0649 7.06502ZM7.49986 11.61H10.8749C11.4899 11.61 11.9999 12.12 11.9999 12.735C11.9999 13.365 11.4899 13.86 10.8749 13.86H7.49986C6.88486 13.86 6.37486 13.365 6.37486 12.735C6.37486 12.12 6.88486 11.61 7.49986 11.61ZM11.9999 18.36H7.49986C6.88486 18.36 6.37486 17.865 6.37486 17.235C6.37486 16.62 6.88486 16.11 7.49986 16.11H11.9999C12.6149 16.11 13.1249 16.62 13.1249 17.235C13.1249 17.865 12.6149 18.36 11.9999 18.36Z" fill="url(#paint1_linear_304_25)"/>
<defs>
<linearGradient id="paint0_linear_304_25" x1="26.0625" y1="4.02002" x2="26.0625" y2="30.773" gradientUnits="userSpaceOnUse">
<stop stop-color="#B90512"/>
<stop offset="1" stop-color="#FF5F08"/>
</linearGradient>
<linearGradient id="paint1_linear_304_25" x1="9.92236" y1="4.02002" x2="9.92236" y2="30.773" gradientUnits="userSpaceOnUse">
<stop stop-color="#B90512"/>
<stop offset="1" stop-color="#FF5F08"/>
</linearGradient>
</defs>
</svg>
