<svg width="36" height="36" viewBox="0 0 36 36" fill="none" xmlns="http://www.w3.org/2000/svg">
<path d="M25.5 7.44V18.12C25.5 21.105 23.385 22.26 20.79 20.7L18.81 19.5C18.36 19.23 17.64 19.23 17.19 19.5L15.21 20.7C12.615 22.26 10.5 21.105 10.5 18.12V7.485C10.515 4.5 12.015 3 15 3H21C23.97 3 25.47 4.485 25.5 7.44Z" fill="url(#paint0_linear_202_766)"/>
<path d="M33 17.8498V22.3948C33 29.9698 30 32.9998 22.5 32.9998H13.5C6 32.9998 3 29.9698 3 22.3948V17.8498C3 13.8148 3.855 11.0698 5.775 9.38979C6.75 8.56479 8.25 9.28479 8.25 10.5598V18.1198C8.25 20.3548 9.165 22.1548 10.755 23.0548C12.36 23.9698 14.4 23.8048 16.38 22.6198L18 21.6448L19.635 22.6198C20.745 23.2948 21.9 23.6398 22.98 23.6398C23.79 23.6398 24.555 23.4448 25.245 23.0548C26.835 22.1548 27.75 20.3548 27.75 18.1198V10.5448C27.75 9.26979 29.265 8.54979 30.225 9.38979C32.145 11.0698 33 13.8148 33 17.8498Z" fill="url(#paint1_linear_202_766)"/>
<defs>
<linearGradient id="paint0_linear_202_766" x1="18" y1="3" x2="18" y2="21.3949" gradientUnits="userSpaceOnUse">
<stop stop-color="#B90512"/>
<stop offset="1" stop-color="#FF5F08"/>
</linearGradient>
<linearGradient id="paint1_linear_202_766" x1="18" y1="9.02783" x2="18" y2="32.9998" gradientUnits="userSpaceOnUse">
<stop stop-color="#B90512"/>
<stop offset="1" stop-color="#FF5F08"/>
</linearGradient>
</defs>
</svg>
