<svg width="36" height="36" viewBox="0 0 36 36" fill="none" xmlns="http://www.w3.org/2000/svg">
<path fill-rule="evenodd" clip-rule="evenodd" d="M35.93 35.3039C35.5357 27.955 29.311 27.1878 23.348 25.6756C21.5161 29.3544 20.4592 31.0679 18.1971 34.3132C15.9972 31.1233 14.7457 29.0921 13.0239 25.4063C7.12888 27.356 0.149049 28.3671 0 35.3039H35.93ZM18.1163 0.00125246C30.9049 -0.185113 35.1334 20.4879 20.9742 21.2154C26.2469 18.4054 27.067 11.9511 23.7409 7.76738C21.3599 6.95452 22.4658 6.32869 20.1067 3.96959C20.4825 5.25747 20.3762 5.87057 18.5993 6.6235C7.28012 8.99906 11.2763 20.442 16.1936 21.2426C4.3841 24.3425 1.34649 0.245789 18.1163 0.00125246ZM23.1612 14.5597C23.4634 14.5597 23.7108 14.3124 23.7108 14.0101V12.8557C23.7108 12.5536 23.4634 12.3064 23.1612 12.3064H20.3347C20.0325 12.3064 19.7853 12.5536 19.7853 12.8557V14.0101C19.7853 14.3121 20.0325 14.5597 20.3347 14.5597H23.1612ZM16.4963 14.5597C16.7984 14.5597 17.0458 14.3121 17.0458 14.0101V12.8557C17.0458 12.5538 16.7986 12.3064 16.4963 12.3064H13.6701C13.3679 12.3064 13.1209 12.5536 13.1209 12.8557V14.0101C13.1209 14.3121 13.3681 14.5597 13.6701 14.5597H16.4963ZM12.4707 11.7974V15.0684H17.7045V13.3965H19.1268V15.0684H24.3604V11.7974H19.1268V12.67H17.7045V11.7974H12.4707Z" fill="url(#paint0_linear_202_748)"/>
<defs>
<linearGradient id="paint0_linear_202_748" x1="17.965" y1="0" x2="17.965" y2="35.3039" gradientUnits="userSpaceOnUse">
<stop stop-color="#B90512"/>
<stop offset="1" stop-color="#FF5F08"/>
</linearGradient>
</defs>
</svg>
