<svg width="34" height="34" viewBox="0 0 34 34" fill="none" xmlns="http://www.w3.org/2000/svg">
<path d="M31.74 21.3368V20.1423C31.74 16.5641 29.7272 13.4659 26.7763 11.895C26.5745 15.2877 25.0854 18.4623 22.5763 20.7914V29.0332H16.5981V33.4514H27.9109V31.2096H29.5581C30.7036 31.2096 31.6363 30.2768 31.6363 29.1314V26.535L33.8181 25.5477L31.74 21.3368Z" fill="url(#paint0_linear_202_742)"/>
<path d="M18.2564 9.17285H15.5619L13.9419 10.7929V13.4874H18.2564V9.17285Z" fill="url(#paint1_linear_202_742)"/>
<path d="M20.4218 26.8786V19.7986C23.2909 17.5349 25.0145 13.8804 24.5782 9.84947C24.0273 4.75493 19.9145 0.631292 14.82 0.0694736C8.12727 -0.66689 2.46545 4.54766 2.46545 11.0931V12.5058L0 17.5077L2.58545 18.6749V21.7513C2.58545 23.1149 3.68727 24.2167 5.05091 24.2167H7.00364V26.8731H20.4218V26.8786ZM10.7073 11.8786C10.4073 11.8786 10.1618 11.6331 10.1618 11.3331C10.1618 11.0331 10.4073 10.7877 10.7073 10.7877H11.7818V9.71856H10.7073C10.4073 9.71856 10.1618 9.47311 10.1618 9.17311C10.1618 8.87311 10.4073 8.62765 10.7073 8.62765H11.7818V7.55311C11.7818 7.25311 12.0218 7.01311 12.3218 7.01311H13.3964V5.93856C13.3964 5.63856 13.6418 5.39311 13.9418 5.39311C14.2418 5.39311 14.4873 5.63856 14.4873 5.93856V7.01311H15.5564V5.93856C15.5564 5.63856 15.8018 5.39311 16.1018 5.39311C16.4018 5.39311 16.6473 5.63856 16.6473 5.93856V7.01311H17.7164V5.93856C17.7164 5.63856 17.9618 5.39311 18.2618 5.39311C18.5618 5.39311 18.8073 5.63856 18.8073 5.93856V7.01311H19.8818C20.1818 7.01311 20.4218 7.25311 20.4218 7.55311V8.62765H21.4964C21.7964 8.62765 22.0418 8.87311 22.0418 9.17311C22.0418 9.47311 21.7964 9.71856 21.4964 9.71856H20.4218V10.7877H21.4964C21.7964 10.7877 22.0418 11.0331 22.0418 11.3331C22.0418 11.6331 21.7964 11.8786 21.4964 11.8786H20.4218V12.9477H21.4964C21.7964 12.9477 22.0418 13.1931 22.0418 13.4931C22.0418 13.7931 21.7964 14.0386 21.4964 14.0386H20.4218V15.1131C20.4218 15.4131 20.1818 15.6531 19.8818 15.6531H18.8073V16.7277C18.8073 17.0277 18.5618 17.2731 18.2618 17.2731C17.9618 17.2731 17.7164 17.0277 17.7164 16.7277V15.6531H16.6473V16.7277C16.6473 17.0277 16.4018 17.2731 16.1018 17.2731C15.8018 17.2731 15.5564 17.0277 15.5564 16.7277V15.6531H14.4873V16.7277C14.4873 17.0277 14.2418 17.2731 13.9418 17.2731C13.6418 17.2731 13.3964 17.0277 13.3964 16.7277V15.6531H12.3218C12.0218 15.6531 11.7818 15.4131 11.7818 15.1131V14.0386H10.7073C10.4073 14.0386 10.1618 13.7931 10.1618 13.4931C10.1618 13.1931 10.4073 12.9477 10.7073 12.9477H11.7818V11.8786H10.7073Z" fill="url(#paint2_linear_202_742)"/>
<defs>
<linearGradient id="paint0_linear_202_742" x1="25.2081" y1="11.895" x2="25.2081" y2="33.4514" gradientUnits="userSpaceOnUse">
<stop stop-color="#B90512"/>
<stop offset="1" stop-color="#FF5F08"/>
</linearGradient>
<linearGradient id="paint1_linear_202_742" x1="16.0992" y1="9.17285" x2="16.0992" y2="13.4874" gradientUnits="userSpaceOnUse">
<stop stop-color="#B90512"/>
<stop offset="1" stop-color="#FF5F08"/>
</linearGradient>
<linearGradient id="paint2_linear_202_742" x1="12.3227" y1="0" x2="12.3227" y2="26.8786" gradientUnits="userSpaceOnUse">
<stop stop-color="#B90512"/>
<stop offset="1" stop-color="#FF5F08"/>
</linearGradient>
</defs>
</svg>
